# xmcd CD database file
#
# Track frame offsets:
#	150
#	16015
#	32828
#	48053
#	61650
#	77011
#	91475
#	105723
#	119975
#	135434
#	151776
#	165784
#	179663
#	194326
#	209364
#	223679
#	239554
#	256362
#	271630
#	285390
#
# Disc length: 4027 seconds
#
# Revision: 1
# Processed by: cddbd v1.5.2PL0 Copyright (c) Steve Scherf et al.
# Submitted via: CDex 1.70beta2
#
DISCID=0c0fb914
DTITLE=Chuck Plaisance and Suzanne Doucet - Sounds of Nature Sampler
DYEAR=1997
DGENRE=New Age
TTITLE0=Ocean Waves
TTITLE1=Southern Swamp
TTITLE2=Rainstorms
TTITLE3=Desert Oasis
TTITLE4=Forest Morning
TTITLE5=Mountain Ranch
TTITLE6=The River
TTITLE7=Pine Forest
TTITLE8=Thunderstorm
TTITLE9=At the Lake
TTITLE10=Summer Nights
TTITLE11=Song of The (Humpback) Whale
TTITLE12=The Rainforest
TTITLE13=Bubbling Creek
TTITLE14=Rolling Thunder
TTITLE15=A Night in the Canyon
TTITLE16=Before the Storm
TTITLE17=Walk at the Beach
TTITLE18=Waterfall
TTITLE19=Wetlands
EXTD=YEAR: 1997
EXTT0=
EXTT1=
EXTT2=
EXTT3=
EXTT4=
EXTT5=
EXTT6=
EXTT7=
EXTT8=
EXTT9=
EXTT10=
EXTT11=
EXTT12=
EXTT13=
EXTT14=
EXTT15=
EXTT16=
EXTT17=
EXTT18=
EXTT19=
PLAYORDER=
